<?xml version="1.0" encoding="UTF-8" standalone="no"?>
<svg xmlns="http://www.w3.org/2000/svg" class="card" face="1B" height="3.5in" preserveAspectRatio="none" viewBox="-120 -168 240 336" width="2.5in"><rect width="239" height="335" x="-119.5" y="-167.5" rx="12" ry="12" fill="white" stroke="black"></rect><rect width="216.095" height="313.967" x="-108.047" y="-156.983" fill="black"></rect><path d="M0,0v-1v-1h-1h-1v-1h-1v-1h1h1v-1v-1h1v1h1v1h-1v1h-1M0,-3h1v1h1v-1v-1h1v-1h1v-1v-1h1v1h1h1v-1v-1v-1h1v1h1v1h-1v1v1h-1v1h-1h-1v1h1h1v1h-1h-1h-1v1h1h1h1v1v1h1h1v1v1h1v1v1v1v1h-1v-1v-1h-1v-1h-1v1v1v1h-1h-1h-1v1h-1v1h1v1v1h-1h-1v-1h1M2,10v-1v-1h-1v1h-1h-1v-1v-1v-1h-1v-1M-2,6v1h-1v-1M-3,7v1h1v1v1v1h1h1v1h-1v1h-1v-1h-1h-1h-1v1h-1h-1v-1h-1v1v1h-1v1h-1h-1v-1v-1h1v1M-10,13v-1v-1h1v1v1M-9,11v-1h-1v-1h-1h-1h-1h-1h-1v-1h-1h-1v1v1h1v1h1v1v1h-1h-1v1h1v1v1h1v1h1v-1h1h1h1h1v1h1h1v-1h-1M-8,16h1v1v1h-1v1v1h1v-1h1h1v1h1v-1v-1h1h1v1h-1v1h1h1v1v1h1v-1v-1v-1v-1v-1h1v1h1h1h1v1h1v-1h1v-1v-1h1v-1v-1h1v1v1h1h1v-1h-1v-1h1h1h1v-1h1h1v-1h-1v-1h-1v1h-1v-1v-1v-1v-1h-1h-1v1h-1v-1v-1v-1M8,8h-1v1h-1v1h1v1h1v-1h1h1v-1M10,10v1h-1v1h1v1h1M10,13h-1h-1h-1h-1v-1h1h1M6,12h-1v1v1v1h-1v-1v-1h-1v-1h1M3,12h-1h-1v-1v-1h-1h-1M1,12v1h-1v1v1v1h1v-1h1v-1h1v1v1h1v1h-1h-1v-1M4,17h1v-1M2,14v-1M1,15v-1M0,16h-1h-1v1h-1h-1v-1h-1h-1v1v1h1v-1M-6,16v-1v-1h-1v1h-1M-6,14h1h1h1v1h1v-1h1v1M-3,15v1M-3,14v-1h-1M-4,14v1h-1M-2,17h1v1v1M5,15h1v-1M5,12v-1h1M5,11v-1v-1v-1h1M11,8v-1h1h1v1h-1v1v1h1v-1h1h1v-1h-1v-1h1v-1h1v-1h-1v-1h1h1v-1h-1h-1v-1h-1h-1v1v1h-1v1v1h-1v-1v-1v-1h1v-1h-1h-1v-1h1h1h1h1v-1v-1h-1v1h-1h-1v-1h1v-1h-1v-1h-1h-1v1v1v1h1v-1v-1M9,0h-1v-1v-1v-1v-1h1h1v-1h-1v-1h1v-1h1v1v1h1v-1v-1v-1h1h1v1h1v1h1h1v1h-1h-1v1h-1v-1h-1v-1v-1M13,-6h1M13,-5v1v1h-1v-1h-1M13,-3h1h1h1v1h-1v1v1v1h1v1h1v-1v-1h-1v-1h1v-1v-1v-1h-1M15,-2h-1h-1M17,-6v-1h-1M12,-8h-1h-1M12,6h1v-1h1v-1v-1M14,5v1M17,4v1v1v1v1v1v1h-1h-1h-1v1h1h1v1h-1v1h1v1h1v1v1v1h-1v-1v-1h-1h-1v1v1v1h-1v-1h-1h-1v-1h1h1v-1h-1h-1M13,15v-1h1h1M11,17v1v1h1h1v1h-1v1v1h-1v-1h-1v1h-1v1v1h1h1h1v-1h-1h-1M12,23h1v1v1h-1h-1h-1h-1h-1h-1h-1v-1h1h1v-1v-1v-1h-1h-1v1h-1v1h-1v-1h-1h-1v-1v-1h1v-1h-1h-1v1v1v1v1v1v1h-1v-1h-1h-1v1h1M-2,25h-1h-1h-1h-1v-1h-1v1h-1h-1v-1v-1h-1v-1v-1v-1h1v1h1h1v1h1h1h1v1h-1h-1h-1h-1v-1h-1M-8,23v1M-5,23v1h1h1v-1h1h1h1M-2,23v-1h-1v-1h-1h-1h-1v-1M-3,21h1M-9,20v-1h-1h-1v1h-1v-1v-1h-1h-1v1h1v1v1h1v1h-1h-1v1h-1v1h-1h-1v-1v-1h1v1M-16,22v-1h1v-1h1v1M-15,20h-1h-1v-1v-1h1v-1h-1v-1v-1M-16,18v1h1v-1M-17,20v1M-15,21v1M-17,24v1h1h1h1h1h1v-1h-1v-1h1h1v1h1v1h-1M-11,23v-1v-1M-13,24h-1M-13,18v-1h1h1v1h1h1M1,25h1h1h1v-1h1v1M4,24h-1v-1h-1v1M3,20h1h1h1h1h1v-1v-1h1h1v-1h-1h-1h-1v1v1h-1M10,18v1h-1v1h1h1M9,20v1M5,20v1h-1h-1M5,23h1h1v-1M13,25h1h1v-1v-1h-1v1M14,23v-1h-1v-1h1h1v-1h1v1v1h1v1h-1v1h1v1h-1M17,22v-1v-1v-1h-1h-1v-1h1h1M15,18v-1v-1M15,19h-1v1M16,22h-1M12,19v-1M17,14v-1v-1v-1M16,10v-1v-1v-1M-12,16v-1v-1h-1v-1h-1v1v1h-1v-1M-14,15h1M-14,13v-1h1h1v-1h-1h-1v-1h-1M-14,10h1h1h1v1v1M-12,12v1M-17,13v-1v-1M-17,12h1M-16,10v-1M-10,9h1M-9,10h1v1h1h1v-1h1h1v1h-1M-4,11h1v-1v-1h-1h-1h-1v-1h1h1M-6,8v-1M-6,10h-1M-6,11v1M-1,7h1h1h1v-1h1v1M3,6v-1h1h1h1v-1v-1h-1v1h-1v-1v-1h-1v-1h-1h-1v-1h1h1v-1h-1h-1M3,-1v-1v-1h1v-1M3,0h1v1h1v1h1h1v1h1v-1M6,2v-1v-1h-1M6,5v1h-1h-1M3,5h-1M0,7v1M8,4h1M5,-4v-1h1" transform="scale(6.117)" fill="none" stroke="white" stroke-width="0.674" stroke-linecap="square" stroke-linejoin="miter"></path><path d="M0,0v-1v-1h-1h-1v-1h-1v-1h1h1v-1v-1h1v1h1v1h-1v1h-1M0,-3h1v1h1v-1v-1h1v-1h1v-1v-1h1v1h1h1v-1v-1v-1h1v1h1v1h-1v1v1h-1v1h-1h-1v1h1h1v1h-1h-1h-1v1h1h1h1v1v1h1h1v1v1h1v1v1v1v1h-1v-1v-1h-1v-1h-1v1v1v1h-1h-1h-1v1h-1v1h1v1v1h-1h-1v-1h1M2,10v-1v-1h-1v1h-1h-1v-1v-1v-1h-1v-1M-2,6v1h-1v-1M-3,7v1h1v1v1v1h1h1v1h-1v1h-1v-1h-1h-1h-1v1h-1h-1v-1h-1v1v1h-1v1h-1h-1v-1v-1h1v1M-10,13v-1v-1h1v1v1M-9,11v-1h-1v-1h-1h-1h-1h-1h-1v-1h-1h-1v1v1h1v1h1v1v1h-1h-1v1h1v1v1h1v1h1v-1h1h1h1h1v1h1h1v-1h-1M-8,16h1v1v1h-1v1v1h1v-1h1h1v1h1v-1v-1h1h1v1h-1v1h1h1v1v1h1v-1v-1v-1v-1v-1h1v1h1h1h1v1h1v-1h1v-1v-1h1v-1v-1h1v1v1h1h1v-1h-1v-1h1h1h1v-1h1h1v-1h-1v-1h-1v1h-1v-1v-1v-1v-1h-1h-1v1h-1v-1v-1v-1M8,8h-1v1h-1v1h1v1h1v-1h1h1v-1M10,10v1h-1v1h1v1h1M10,13h-1h-1h-1h-1v-1h1h1M6,12h-1v1v1v1h-1v-1v-1h-1v-1h1M3,12h-1h-1v-1v-1h-1h-1M1,12v1h-1v1v1v1h1v-1h1v-1h1v1v1h1v1h-1h-1v-1M4,17h1v-1M2,14v-1M1,15v-1M0,16h-1h-1v1h-1h-1v-1h-1h-1v1v1h1v-1M-6,16v-1v-1h-1v1h-1M-6,14h1h1h1v1h1v-1h1v1M-3,15v1M-3,14v-1h-1M-4,14v1h-1M-2,17h1v1v1M5,15h1v-1M5,12v-1h1M5,11v-1v-1v-1h1M11,8v-1h1h1v1h-1v1v1h1v-1h1h1v-1h-1v-1h1v-1h1v-1h-1v-1h1h1v-1h-1h-1v-1h-1h-1v1v1h-1v1v1h-1v-1v-1v-1h1v-1h-1h-1v-1h1h1h1h1v-1v-1h-1v1h-1h-1v-1h1v-1h-1v-1h-1h-1v1v1v1h1v-1v-1M9,0h-1v-1v-1v-1v-1h1h1v-1h-1v-1h1v-1h1v1v1h1v-1v-1v-1h1h1v1h1v1h1h1v1h-1h-1v1h-1v-1h-1v-1v-1M13,-6h1M13,-5v1v1h-1v-1h-1M13,-3h1h1h1v1h-1v1v1v1h1v1h1v-1v-1h-1v-1h1v-1v-1v-1h-1M15,-2h-1h-1M17,-6v-1h-1M12,-8h-1h-1M12,6h1v-1h1v-1v-1M14,5v1M17,4v1v1v1v1v1v1h-1h-1h-1v1h1h1v1h-1v1h1v1h1v1v1v1h-1v-1v-1h-1h-1v1v1v1h-1v-1h-1h-1v-1h1h1v-1h-1h-1M13,15v-1h1h1M11,17v1v1h1h1v1h-1v1v1h-1v-1h-1v1h-1v1v1h1h1h1v-1h-1h-1M12,23h1v1v1h-1h-1h-1h-1h-1h-1h-1v-1h1h1v-1v-1v-1h-1h-1v1h-1v1h-1v-1h-1h-1v-1v-1h1v-1h-1h-1v1v1v1v1v1v1h-1v-1h-1h-1v1h1M-2,25h-1h-1h-1h-1v-1h-1v1h-1h-1v-1v-1h-1v-1v-1v-1h1v1h1h1v1h1h1h1v1h-1h-1h-1h-1v-1h-1M-8,23v1M-5,23v1h1h1v-1h1h1h1M-2,23v-1h-1v-1h-1h-1h-1v-1M-3,21h1M-9,20v-1h-1h-1v1h-1v-1v-1h-1h-1v1h1v1v1h1v1h-1h-1v1h-1v1h-1h-1v-1v-1h1v1M-16,22v-1h1v-1h1v1M-15,20h-1h-1v-1v-1h1v-1h-1v-1v-1M-16,18v1h1v-1M-17,20v1M-15,21v1M-17,24v1h1h1h1h1h1v-1h-1v-1h1h1v1h1v1h-1M-11,23v-1v-1M-13,24h-1M-13,18v-1h1h1v1h1h1M1,25h1h1h1v-1h1v1M4,24h-1v-1h-1v1M3,20h1h1h1h1h1v-1v-1h1h1v-1h-1h-1h-1v1v1h-1M10,18v1h-1v1h1h1M9,20v1M5,20v1h-1h-1M5,23h1h1v-1M13,25h1h1v-1v-1h-1v1M14,23v-1h-1v-1h1h1v-1h1v1v1h1v1h-1v1h1v1h-1M17,22v-1v-1v-1h-1h-1v-1h1h1M15,18v-1v-1M15,19h-1v1M16,22h-1M12,19v-1M17,14v-1v-1v-1M16,10v-1v-1v-1M-12,16v-1v-1h-1v-1h-1v1v1h-1v-1M-14,15h1M-14,13v-1h1h1v-1h-1h-1v-1h-1M-14,10h1h1h1v1v1M-12,12v1M-17,13v-1v-1M-17,12h1M-16,10v-1M-10,9h1M-9,10h1v1h1h1v-1h1h1v1h-1M-4,11h1v-1v-1h-1h-1h-1v-1h1h1M-6,8v-1M-6,10h-1M-6,11v1M-1,7h1h1h1v-1h1v1M3,6v-1h1h1h1v-1v-1h-1v1h-1v-1v-1h-1v-1h-1h-1v-1h1h1v-1h-1h-1M3,-1v-1v-1h1v-1M3,0h1v1h1v1h1h1v1h1v-1M6,2v-1v-1h-1M6,5v1h-1h-1M3,5h-1M0,7v1M8,4h1M5,-4v-1h1" transform="scale(6.117)rotate(180)" fill="none" stroke="white" stroke-width="0.674" stroke-linecap="square" stroke-linejoin="miter"></path></svg>